<svg width="118" height="36" viewBox="0 0 118 36" fill="none" xmlns="http://www.w3.org/2000/svg">
<path d="M103.525 13.7751C103.1 14.2251 102.225 17.0501 105.9 20.7501C107.075 21.9251 107.95 21.0501 108.675 21.8001L115.25 28.3751C115.25 28.3751 116.675 27.9001 116.9 26.7001L103.875 13.6501C103.875 13.6501 103.75 13.5501 103.525 13.7751Z" fill="#BEABB7"/>
<path d="M117.45 15.7499C117.625 15.4249 117.225 15.5249 117.225 15.5249C117.225 15.5249 114.575 18.0749 114.2 17.7749C113.825 17.4749 116.8 15.0249 116.45 14.5499C116.125 14.1249 113.525 17.1749 113.2 16.7999C112.9 16.4249 115.425 13.7749 115.425 13.7749C115.425 13.7749 115.525 13.3749 115.2 13.5499C111.2 15.6999 110.7 17.6999 110.7 17.6999C110.7 17.6999 110.55 18.0999 110.85 18.3999C110.875 18.4249 103.55 25.7249 102.575 26.6999C102.1 27.1749 103.85 28.8999 104.325 28.4249C105.3 27.4499 112.575 20.0999 112.6 20.1249C112.9 20.4249 113.3 20.2999 113.3 20.2999C113.3 20.2999 115.3 19.7749 117.45 15.7499" fill="#3A0F2A"/>
<path d="M1.89631 29V7.18182H6.50923V25.1967H15.8629V29H1.89631ZM47.6287 7.18182H53.3176L59.3262 21.8409H59.5819L65.5904 7.18182H71.2793V29H66.8049V14.799H66.6238L60.9775 28.8935H57.9306L52.2843 14.7457H52.1032V29H47.6287V7.18182Z" fill="#EC169A"/>
<path d="M22.9519 29.3196C22.0878 29.3196 21.3036 29.1568 20.5993 28.8313C19.8949 28.4999 19.3356 28.0234 18.9213 27.402C18.507 26.7746 18.2999 26.017 18.2999 25.1293C18.2999 24.348 18.4538 23.7147 18.7615 23.2294C19.0693 22.7382 19.4806 22.3535 19.9956 22.0753C20.5105 21.7971 21.0787 21.59 21.7001 21.4538C22.3275 21.3118 22.9578 21.1993 23.5911 21.1165C24.4197 21.0099 25.0914 20.93 25.6064 20.8768C26.1272 20.8176 26.506 20.7199 26.7427 20.5838C26.9854 20.4477 27.1067 20.2109 27.1067 19.8736V19.8026C27.1067 18.9266 26.867 18.246 26.3876 17.7607C25.9141 17.2753 25.195 17.0327 24.2303 17.0327C23.2301 17.0327 22.4458 17.2517 21.8777 17.6896C21.3095 18.1276 20.91 18.5952 20.6792 19.0923L18.6905 18.3821C19.0456 17.5535 19.5191 16.9084 20.111 16.4467C20.7087 15.9792 21.3598 15.6536 22.0641 15.4702C22.7743 15.2808 23.4727 15.1861 24.1593 15.1861C24.5972 15.1861 25.1003 15.2393 25.6685 15.3459C26.2426 15.4465 26.796 15.6566 27.3287 15.9762C27.8672 16.2958 28.3141 16.7782 28.6692 17.4233C29.0243 18.0684 29.2019 18.9325 29.2019 20.0156V29H27.1067V27.1534H27.0002C26.8581 27.4493 26.6214 27.766 26.29 28.1033C25.9585 28.4407 25.5176 28.7277 24.9672 28.9645C24.4167 29.2012 23.745 29.3196 22.9519 29.3196ZM23.2715 27.4375C24.1001 27.4375 24.7985 27.2747 25.3667 26.9492C25.9408 26.6237 26.3728 26.2035 26.6628 25.6886C26.9587 25.1737 27.1067 24.6321 27.1067 24.0639V22.1463C27.0179 22.2528 26.8226 22.3505 26.5208 22.4393C26.2248 22.5221 25.8816 22.5961 25.4909 22.6612C25.1062 22.7204 24.7304 22.7737 24.3635 22.821C24.0024 22.8625 23.7095 22.898 23.4846 22.9276C22.94 22.9986 22.431 23.114 21.9576 23.2738C21.49 23.4277 21.1112 23.6615 20.8212 23.9751C20.5371 24.2829 20.3951 24.7031 20.3951 25.2358C20.3951 25.9638 20.6644 26.5142 21.2029 26.8871C21.7475 27.254 22.437 27.4375 23.2715 27.4375ZM35.1212 20.7969V29H33.026V15.3636H35.0502V17.4943H35.2277C35.5473 16.8018 36.0326 16.2455 36.6837 15.8253C37.3347 15.3991 38.1752 15.1861 39.205 15.1861C40.1283 15.1861 40.9362 15.3755 41.6286 15.7543C42.3211 16.1271 42.8597 16.6953 43.2444 17.4588C43.6291 18.2164 43.8215 19.1752 43.8215 20.3352V29H41.7263V20.4773C41.7263 19.406 41.4481 18.5715 40.8918 17.9737C40.3354 17.37 39.5719 17.0682 38.6013 17.0682C37.9325 17.0682 37.3347 17.2132 36.808 17.5032C36.2871 17.7932 35.8758 18.2164 35.574 18.7727C35.2721 19.3291 35.1212 20.0038 35.1212 20.7969ZM80.8185 29.2841C79.5046 29.2841 78.3712 28.9941 77.4183 28.4141C76.4714 27.8281 75.7404 27.0114 75.2255 25.9638C74.7165 24.9103 74.462 23.6851 74.462 22.2884C74.462 20.8916 74.7165 19.6605 75.2255 18.5952C75.7404 17.5239 76.4566 16.6894 77.3739 16.0916C78.2972 15.4879 79.3744 15.1861 80.6055 15.1861C81.3157 15.1861 82.017 15.3045 82.7095 15.5412C83.402 15.7779 84.0323 16.1626 84.6005 16.6953C85.1687 17.2221 85.6214 17.9205 85.9588 18.7905C86.2962 19.6605 86.4648 20.7318 86.4648 22.0043V22.892H75.9535V21.081H84.3342C84.3342 20.3116 84.1803 19.625 83.8725 19.0213C83.5707 18.4176 83.1386 17.9412 82.5763 17.592C82.02 17.2428 81.363 17.0682 80.6055 17.0682C79.771 17.0682 79.0489 17.2753 78.4393 17.6896C77.8356 18.098 77.371 18.6307 77.0455 19.2876C76.7199 19.9446 76.5572 20.6489 76.5572 21.4006V22.608C76.5572 23.6378 76.7347 24.5108 77.0898 25.2269C77.4509 25.9371 77.951 26.4787 78.5902 26.8516C79.2294 27.2185 79.9722 27.402 80.8185 27.402C81.369 27.402 81.8661 27.325 82.31 27.1712C82.7598 27.0114 83.1475 26.7746 83.473 26.4609C83.7985 26.1413 84.0501 25.7448 84.2276 25.2713L86.2518 25.8395C86.0387 26.526 85.6806 27.1297 85.1776 27.6506C84.6745 28.1655 84.053 28.5679 83.3132 28.858C82.5734 29.142 81.7418 29.2841 80.8185 29.2841ZM93.6648 29.3196C92.8007 29.3196 92.0165 29.1568 91.3121 28.8313C90.6078 28.4999 90.0485 28.0234 89.6342 27.402C89.2199 26.7746 89.0128 26.017 89.0128 25.1293C89.0128 24.348 89.1667 23.7147 89.4744 23.2294C89.7822 22.7382 90.1935 22.3535 90.7085 22.0753C91.2234 21.7971 91.7915 21.59 92.413 21.4538C93.0404 21.3118 93.6707 21.1993 94.304 21.1165C95.1326 21.0099 95.8043 20.93 96.3192 20.8768C96.8401 20.8176 97.2189 20.7199 97.4556 20.5838C97.6983 20.4477 97.8196 20.2109 97.8196 19.8736V19.8026C97.8196 18.9266 97.5799 18.246 97.1005 17.7607C96.627 17.2753 95.9079 17.0327 94.9432 17.0327C93.9429 17.0327 93.1587 17.2517 92.5906 17.6896C92.0224 18.1276 91.6229 18.5952 91.392 19.0923L89.4034 18.3821C89.7585 17.5535 90.232 16.9084 90.8239 16.4467C91.4216 15.9792 92.0727 15.6536 92.777 15.4702C93.4872 15.2808 94.1856 15.1861 94.8722 15.1861C95.3101 15.1861 95.8132 15.2393 96.3814 15.3459C96.9555 15.4465 97.5089 15.6566 98.0415 15.9762C98.5801 16.2958 99.027 16.7782 99.3821 17.4233C99.7372 18.0684 99.9148 18.9325 99.9148 20.0156V29H97.8196V27.1534H97.7131C97.571 27.4493 97.3343 27.766 97.0028 28.1033C96.6714 28.4407 96.2305 28.7277 95.68 28.9645C95.1296 29.2012 94.4579 29.3196 93.6648 29.3196ZM93.9844 27.4375C94.813 27.4375 95.5114 27.2747 96.0795 26.9492C96.6536 26.6237 97.0857 26.2035 97.3757 25.6886C97.6716 25.1737 97.8196 24.6321 97.8196 24.0639V22.1463C97.7308 22.2528 97.5355 22.3505 97.2337 22.4393C96.9377 22.5221 96.5945 22.5961 96.2038 22.6612C95.8191 22.7204 95.4433 22.7737 95.0763 22.821C94.7153 22.8625 94.4223 22.898 94.1974 22.9276C93.6529 22.9986 93.1439 23.114 92.6705 23.2738C92.2029 23.4277 91.8241 23.6615 91.5341 23.9751C91.25 24.2829 91.108 24.7031 91.108 25.2358C91.108 25.9638 91.3772 26.5142 91.9158 26.8871C92.4603 27.254 93.1499 27.4375 93.9844 27.4375Z" fill="black"/>
</svg>
